<svg width="512" height="512" viewBox="0 0 512 512" fill="none" xmlns="http://www.w3.org/2000/svg">
  <rect width="512" height="512" rx="64" fill="#0f0f23"/>
  <rect x="32" y="32" width="448" height="448" rx="32" fill="#1a1a3a" stroke="#6366f1" stroke-width="4"/>
  
  <!-- StrayDog Logo Elements -->
  <circle cx="256" cy="200" r="80" fill="#6366f1" opacity="0.8"/>
  <circle cx="256" cy="200" r="60" fill="#8b5cf6" opacity="0.6"/>
  <circle cx="256" cy="200" r="40" fill="#a855f7" opacity="0.4"/>
  <circle cx="256" cy="200" r="20" fill="#c084fc" opacity="0.3"/>
  
  <!-- AI Neural Network Pattern -->
  <g stroke="#6366f1" stroke-width="3" fill="none" opacity="0.7">
    <!-- Horizontal connections -->
    <line x1="128" y1="256" x2="384" y2="256"/>
    <line x1="160" y1="300" x2="352" y2="300"/>
    <line x1="144" y1="344" x2="368" y2="344"/>
    <line x1="176" y1="388" x2="336" y2="388"/>
    
    <!-- Diagonal connections -->
    <line x1="128" y1="256" x2="160" y2="300"/>
    <line x1="160" y1="300" x2="144" y2="344"/>
    <line x1="352" y1="300" x2="368" y2="344"/>
    <line x1="384" y1="256" x2="352" y2="300"/>
    
    <!-- Nodes -->
    <circle cx="128" cy="256" r="8" fill="#6366f1"/>
    <circle cx="384" cy="256" r="8" fill="#6366f1"/>
    <circle cx="160" cy="300" r="6" fill="#8b5cf6"/>
    <circle cx="352" cy="300" r="6" fill="#8b5cf6"/>
    <circle cx="144" cy="344" r="6" fill="#a855f7"/>
    <circle cx="368" cy="344" r="6" fill="#a855f7"/>
    <circle cx="176" cy="388" r="5" fill="#c084fc"/>
    <circle cx="336" cy="388" r="5" fill="#c084fc"/>
  </g>
  
  <!-- Additional decorative elements -->
  <g opacity="0.3">
    <rect x="80" y="120" width="4" height="40" fill="#6366f1" rx="2"/>
    <rect x="428" y="140" width="4" height="30" fill="#8b5cf6" rx="2"/>
    <rect x="100" y="420" width="30" height="4" fill="#a855f7" rx="2"/>
    <rect x="380" y="440" width="40" height="4" fill="#c084fc" rx="2"/>
  </g>
  
  <!-- Text -->
  <text x="256" y="460" text-anchor="middle" fill="#6366f1" font-family="Arial, sans-serif" font-size="36" font-weight="bold">STRAYDOG</text>
  <text x="256" y="485" text-anchor="middle" fill="#8b5cf6" font-family="Arial, sans-serif" font-size="18" opacity="0.8">SYNDICATE</text>
</svg>