<svg width="40" height="40" viewBox="0 0 40 40" fill="none" xmlns="http://www.w3.org/2000/svg">
  <!-- Gear outer ring -->
  <path d="M20 2L22.5 7.5L28 6L27 12L33 13.5L30 18.5L36 22L31 26L35 31L28.5 32.5L30 38L23 36.5L20 40L17 36.5L10 38L11.5 32.5L5 31L9 26L4 22L10 18.5L7 13.5L13 12L12 6L17.5 7.5L20 2Z" fill="#355E3B" stroke="#50C878" stroke-width="1"/>
  
  <!-- Inner gear circle -->
  <circle cx="20" cy="20" r="12" fill="#50C878" stroke="#355E3B" stroke-width="1.5"/>
  
  <!-- Center hub -->
  <circle cx="20" cy="20" r="6" fill="#355E3B"/>
  
  <!-- Gear teeth details -->
  <path d="M20 8L21 10L19 10L20 8Z" fill="#50C878"/>
  <path d="M32 20L30 21L30 19L32 20Z" fill="#50C878"/>
  <path d="M20 32L19 30L21 30L20 32Z" fill="#50C878"/>
  <path d="M8 20L10 19L10 21L8 20Z" fill="#50C878"/>
  
  <!-- StrayDog initials in center -->
  <text x="20" y="24" text-anchor="middle" font-family="Inter, sans-serif" font-size="8" font-weight="bold" fill="#50C878">SD</text>
</svg>